<svg id="Laag_1" data-name="Laag 1" xmlns="http://www.w3.org/2000/svg" xmlns:xlink="http://www.w3.org/1999/xlink" viewBox="0 0 1161.21 1038.39"><defs><style>.cls-1{fill:#ffd721;}.cls-2{fill:none;}.cls-3{clip-path:url(#clip-path);}.cls-4{clip-path:url(#clip-path-2);}.cls-5{fill:#777cb4;}.cls-6{fill:#010101;}.cls-7{fill:#fff;}</style><clipPath id="clip-path"><path id="SVGID" class="cls-1" d="M23.22,519.19c0,161.93,249.56,293.21,557.39,293.21h0C888.43,812.4,1138,681.12,1138,519.19h0C1138,357.27,888.43,226,580.61,226h0C272.78,226,23.22,357.27,23.22,519.19"/></clipPath><clipPath id="clip-path-2"><rect id="SVGID-2" data-name="SVGID" class="cls-2" y="192.6" width="1161.21" height="653.18"/></clipPath></defs><title>php</title><path id="SVGID-4" data-name="SVGID" class="cls-1" d="M23.22,519.19c0,161.93,249.56,293.21,557.39,293.21h0C888.43,812.4,1138,681.12,1138,519.19h0C1138,357.27,888.43,226,580.61,226h0C272.78,226,23.22,357.27,23.22,519.19"/><g class="cls-3"><g id="g3442"><g id="g3448"><g id="g3450"><path id="path3462" class="cls-1" d="M23.22,519.19c0,161.93,249.56,293.21,557.39,293.21h0C888.43,812.4,1138,681.12,1138,519.19h0C1138,357.27,888.43,226,580.61,226h0C272.78,226,23.22,357.27,23.22,519.19"/></g></g></g></g><g id="g3464"><g class="cls-4"><g id="g3466"><g id="g3472"><path id="path3474" class="cls-5" d="M580.61,790.63c295.8,0,535.6-121.53,535.6-271.44s-239.8-271.43-535.6-271.43S45,369.29,45,519.19,284.8,790.63,580.61,790.63"/></g></g></g></g><g class="cls-4"><g id="g3478"><g id="g3484"><path id="path3486" class="cls-6" d="M326.06,552.85c24.32,0,42.48-4.49,54-13.33s19.21-23.91,23.33-45.06c3.83-19.77,2.37-33.58-4.35-41C392.15,445.83,377.3,442,354.88,442H316L294.46,552.85ZM198.92,689.43a6,6,0,0,1-5.93-7.2l57.1-293.83a6.07,6.07,0,0,1,5.94-4.9H379.12c38.68,0,67.47,10.51,85.57,31.23s23.81,49.94,16.7,86.52a133.69,133.69,0,0,1-42,75.28,119.56,119.56,0,0,1-44.83,26.86c-16.13,5.26-36.85,7.92-61.58,7.92H283.1l-14.23,73.23a6.05,6.05,0,0,1-5.94,4.89Z"/></g><g id="g3488"><path id="path3490" class="cls-7" d="M321,448h33.89c27.05,0,36.45,5.93,39.65,9.47,5.29,5.88,6.29,18.26,2.89,35.82-3.83,19.65-10.92,33.59-21.08,41.42-10.41,8-27.33,12.07-50.28,12.07H301.8Zm58.13-70.56H256a12.09,12.09,0,0,0-11.87,9.78L187.05,681.08a12.09,12.09,0,0,0,11.87,14.4h64a12.09,12.09,0,0,0,11.87-9.79l13.28-68.33h44.86c25.36,0,46.72-2.77,63.46-8.22A125.47,125.47,0,0,0,443.48,581a139.68,139.68,0,0,0,43.84-78.54c7.49-38.52,1.41-69.36-18.08-91.66-19.29-22.09-49.62-33.29-90.12-33.29m-92,181.44h38.94q38.7,0,57.66-14.59t25.57-48.7q6.36-32.76-5.78-46.22t-48.63-13.47H311l-23.9,123m92-169.35q55.53,0,81,29.15t15.31,81.4a127.67,127.67,0,0,1-40.19,72,113.08,113.08,0,0,1-42.61,25.56q-23.43,7.64-59.71,7.62H278.11l-15.18,78.12h-64L256,389.55H379.12"/></g><g id="g3492"><path id="path3494" class="cls-6" d="M628.15,611.31a6,6,0,0,1-5.94-7.2l25.26-130c2.41-12.36,1.81-21.24-1.66-25-2.13-2.29-8.53-6.13-27.43-6.13H572.61L540.85,606.42a6.06,6.06,0,0,1-5.94,4.89h-63.5a6,6,0,0,1-5.94-7.2l57.11-293.83a6.05,6.05,0,0,1,5.93-4.9H592a6,6,0,0,1,5.94,7.21L584.17,383.5h49.24c37.51,0,62.94,6.62,77.75,20.22,15.1,13.88,19.81,36.07,14,66L698.6,606.42a6,6,0,0,1-5.94,4.89Z"/></g><g id="g3496"><path id="path3498" class="cls-7" d="M592,299.34H528.51a12.09,12.09,0,0,0-11.87,9.78L459.53,603a12.09,12.09,0,0,0,11.88,14.4h63.5a12.09,12.09,0,0,0,11.87-9.79L577.59,449h40.79c18.87,0,22.83,4,23,4.21,1.15,1.23,2.65,6.94.17,19.72L616.27,603a12.11,12.11,0,0,0,11.88,14.4h64.51a12.11,12.11,0,0,0,11.88-9.79L731.1,470.84c6.24-32.1.9-56.18-15.84-71.57-16-14.68-42.76-21.81-81.85-21.81h-41.9l12.38-63.72A12.09,12.09,0,0,0,592,299.34m0,12.09-15.18,78.12h56.57q53.4,0,73.66,18.63t12.16,60.35L692.66,605.26H628.15l25.26-130q4.32-22.18-3.17-30.26t-31.86-8.07H567.62L534.91,605.26h-63.5l57.1-293.83H592"/></g><g id="g3500"><path id="path3502" class="cls-6" d="M825.65,552.85c24.32,0,42.48-4.49,54-13.33s19.22-23.91,23.33-45.06c3.84-19.77,2.38-33.58-4.34-41-6.87-7.61-21.72-11.47-44.14-11.47H815.6L794.05,552.85ZM698.52,689.43a6,6,0,0,1-5.94-7.2L749.69,388.4a6.05,6.05,0,0,1,5.94-4.9H878.71c38.68,0,67.48,10.51,85.57,31.23s23.82,49.93,16.7,86.52a133.69,133.69,0,0,1-42,75.28,119.52,119.52,0,0,1-44.82,26.86c-16.14,5.26-36.86,7.92-61.59,7.92H782.69l-14.23,73.23a6,6,0,0,1-5.94,4.89Z"/></g><g id="g3504"><path id="path3506" class="cls-7" d="M820.59,448h33.88c27.06,0,36.46,5.93,39.65,9.47,5.3,5.88,6.3,18.26,2.89,35.82-3.82,19.65-10.92,33.59-21.08,41.42-10.41,8-27.32,12.07-50.28,12.07H801.39Zm58.12-70.56H755.63a12.1,12.1,0,0,0-11.88,9.78l-57.1,293.84a12.08,12.08,0,0,0,11.87,14.4h64a12.11,12.11,0,0,0,11.87-9.79l13.28-68.33h44.85c25.37,0,46.72-2.77,63.46-8.22a125.41,125.41,0,0,0,47.09-28.2,139.77,139.77,0,0,0,43.84-78.53c7.49-38.52,1.4-69.36-18.08-91.66-19.3-22.09-49.62-33.29-90.13-33.29m-92,181.44h38.93q38.72,0,57.66-14.59t25.58-48.7q6.36-32.76-5.79-46.22t-48.63-13.47H810.62l-23.9,123m92-169.35q55.54,0,81,29.15T975,500.1a127.67,127.67,0,0,1-40.19,72,113.12,113.12,0,0,1-42.6,25.56q-23.44,7.64-59.72,7.62H777.71l-15.18,78.12h-64l57.11-293.83H878.71"/></g></g></g></svg>