<svg id="Laag_1" data-name="Laag 1" xmlns="http://www.w3.org/2000/svg" viewBox="0 0 1161.21 1038.39"><defs><style>.cls-1{fill:#ffd721;}</style></defs><title>react</title><path class="cls-1" d="M925.76,191.76c.53,43.71-6.09,86.59-15.35,129.11-1.43,6.53.34,8.37,6.05,10.2,51.37,16.5,101.12,36.67,146.12,67,27.56,18.59,52.5,39.91,69.59,69.11,21.31,36.42,19.85,72.39-2.24,107.84-20,32.05-49,54.48-80.52,73.9-41,25.23-85.05,43.65-130.93,57.82-6.6,2-8,4.43-6.47,11.37,11.13,49.7,17.64,100,15.11,151-2,40.58-8.52,80.23-33.36,114.11-23.88,32.59-57.21,43.72-96.28,39.27C743.1,1016.35,697.35,990,653.43,959.7c-24.07-16.59-46.42-35.39-68-55.08-4.17-3.81-6.5-2.79-10,.49C543.85,934.44,510.07,960.94,473,983c-31.29,18.6-64,33.62-100.45,39.44-54.16,8.66-97.63-12.1-120.57-65.89-12-28.18-16.62-58-18-88.35-2.23-50.77,4.18-100.76,15.14-150.2,1.52-6.85-.44-9-6.43-10.85-37.21-11.63-73.4-25.84-107.87-44.15-29.74-15.8-57.77-34.12-81.52-58.2-18-18.32-32.81-39-38.53-64.63-6-26.91-.37-52,14-75.28,18.77-30.47,45.77-52.26,75.34-71.26,42.13-27.06,88-46.09,135.45-61.37,9.9-3.18,10.22-3.45,8.1-13.57-7-33.28-12.15-66.76-14.26-100.8-2.73-44.09-.49-87.47,15-129.25C259.27,59.22,277,35.27,307,22.79c23-9.56,47-9.45,70.91-4.8,48.58,9.42,90.24,33.73,130.17,61.57,23.09,16.11,44.62,34.19,65.44,53.06,5.14,4.65,7.6,3.94,12.27-.37C628.34,93,674.18,58.41,727.28,34.47c26.78-12.07,54.55-20.91,84.34-20.39,39.52.69,69.15,18.43,88.6,53,14.19,25.18,20.21,52.72,23.77,81C925.82,162.6,925.66,177.18,925.76,191.76ZM580.44,703.66c32.39,1.2,65.26-1.47,98.17-3.25,4.37-.24,6.7-2.28,9-5.65,37.42-54.15,69.52-111.35,98.08-170.58a10.3,10.3,0,0,0,0-9.86c-28.05-59.85-61.61-116.5-98.87-171-2-2.88-4.11-4.58-7.82-4.77-17.52-.89-35-2.61-52.54-3-48.38-1.08-96.76-.7-145.06,3-4.21.32-6.94,1.69-9.22,5.28-11,17.32-22.53,34.34-33.39,51.76a1187.57,1187.57,0,0,0-63.58,116.66c-1.8,3.76-3.95,7.21-1.6,12.08,28.77,59.76,61.54,117.19,99.5,171.62,2.06,2.95,4.22,4.32,7.88,4.53C513.94,702.29,546.82,704.76,580.44,703.66Zm515.75-184.87a44.12,44.12,0,0,0-.63-5.54,66.07,66.07,0,0,0-2.67-9.31c-8.84-22.2-25.58-37.85-44-51.9-44.23-33.78-94.9-54.4-147.24-71.62-5.53-1.82-6.38.74-7.59,4.81a1052.54,1052.54,0,0,1-47.53,129.08c-1.3,2.92-1.59,5.36-.23,8.39a1047.68,1047.68,0,0,1,48,128.91c1.81,6.07,4,7.49,10.24,5.45,37.61-12.25,74.22-26.79,108.47-46.71,24.37-14.18,47.59-30,65.63-52.16C1088.08,546.65,1095.08,534.11,1096.19,518.79ZM809.08,65.47c-4,.4-8.06.68-12.06,1.23-25.28,3.45-48.26,13.35-70.46,25.38-39,21.13-73.48,48.4-106.18,78.11-3.51,3.19-3.34,5.32-.06,8.45,4.5,4.28,8.63,9,12.82,13.55a1141.71,1141.71,0,0,1,76.33,93.52,9.45,9.45,0,0,0,7.21,4.29,1174.54,1174.54,0,0,1,136.26,23.21c5.64,1.32,6.85-.29,7.91-5.37,9.78-47.17,15.92-94.65,12.82-143-1.29-20.29-4.6-40.21-11.87-59.27C851,77.42,835.61,65.9,809.08,65.47ZM285.54,846.23c-.07,14.86-.26,29.76,2,44.49,2.8,18.16,6.4,36.15,15,52.69,12.34,23.73,28.24,30.8,53.71,29.3,16-.94,31.36-5.64,46.13-11.72,52-21.42,95.56-55.49,137-92.65,4.51-4.05,1.71-6.1-1-9-28.21-30.63-55.61-62-79.93-95.79-7.18-10-14.38-17.74-27.92-16.51-4.45.4-9.08-1-13.62-1.67-36.83-5.32-73.59-11.08-109.71-20.24-5-1.28-7.42.45-8.43,5.57C291.3,768.85,284.83,807.12,285.54,846.23ZM63.41,518.65a63.16,63.16,0,0,0,9.85,29c11.93,18.91,28.65,32.91,46.6,45.56,41.72,29.39,88.27,48.64,136.49,64.31,5.08,1.66,7.45,1,9.14-4.82a945.66,945.66,0,0,1,43.85-120c4.33-9.74,3.67-17.38-.43-26.67a969.64,969.64,0,0,1-44-120c-1.72-5.89-3.68-6.84-9.38-5-38.81,12.84-76.66,27.88-111.91,48.76-24,14.23-46.88,30-64.34,52.39C70.82,493.08,64.78,504.93,63.41,518.65ZM346.49,67C326,65,310.18,77.07,300.21,98.62a133.36,133.36,0,0,0-9.56,28.31c-6.48,30.58-7.64,61.39-5.26,92.56a676.14,676.14,0,0,0,13.05,88.7c1.12,5.31,3.1,6.61,8.26,5.37a1021.79,1021.79,0,0,1,129-22.57c4.6-.5,10.14.59,13.93-4.66,27.24-37.71,56.54-73.73,88.84-107.26,3.41-3.55,3.19-6.18-.69-9.33-6.71-5.44-13-11.43-19.59-17-32-26.84-65.59-51.3-103.72-68.83C394.24,74.65,373.43,67.14,346.49,67ZM875.4,850.61c.06-42.28-5.88-80.58-13.56-118.71-1.48-7.38-4.69-8-11.16-6.47a1112.37,1112.37,0,0,1-117.76,20.91c-8.71,1-18.49-1-25.44,8.88a929.14,929.14,0,0,1-85.65,103.56c-3.62,3.82-4,6.36.21,9.81,10.81,9,21.19,18.44,32.15,27.21,34.95,28,71.68,53.06,114.46,67.83,15.39,5.32,31.17,8.5,47.61,8,21.07-.7,36.85-13.69,46.1-38.33C872.76,905.54,875.51,876.67,875.4,850.61ZM643.32,284.77a922,922,0,0,0-60.7-70.7c-3.29-3.5-5.51-1.88-7.92.88-14.56,16.67-29.37,33.12-43.61,50.07-5,6-10.73,11.62-14.29,19.32C558.93,282.74,600.2,282.49,643.32,284.77ZM516.67,753.68c1.32,2.27,1.64,3,2.11,3.61,18,23.3,37.79,45.11,57.57,66.91,3.81,4.2,5.75,1.58,8.33-1.05C600,807.51,614.22,790.87,628,773.9c5-6.11,10.85-11.71,14.71-20.2C600.46,756.64,559.22,756,516.67,753.68Zm298-171.56c-1.31,2.32-2.27,3.88-3.11,5.5-16.85,32.3-34.73,64-54.17,94.83-1.48,2.35-4.94,4.84-2.78,7.57,1.05,1.33,5.13.78,7.7.31,26.22-4.73,52.47-9.28,78.4-15.54,5.37-1.3,5.76-3.06,4.21-7.66-5.34-15.83-10-31.89-15.57-47.63C825,607.16,821,594.62,814.71,582.12ZM408,346.8c-30.9,4.44-59.88,10.3-88.78,16.6-5.14,1.11-6.3,3.07-4.66,8.36,7.67,24.75,15.92,49.28,25.47,73.36,1.33,3.34,1.52,7.41,5.61,10.07C364.53,418.33,385.08,382.65,408,346.8ZM345.67,583.71c-1.4,1-1.73,1.08-1.82,1.29-11.59,27.6-20.79,56-29.52,84.64-1.25,4.1.89,4.25,3.87,5,22.74,5.67,45.78,9.9,68.85,13.86,5.95,1,12.23,3.66,19.78,1.13C384.78,654.74,363.77,620.29,345.67,583.71ZM814.2,454.57c2.1-.86,2.28-2.54,2.87-4,9.17-23.37,17.32-47.08,24.72-71.06,4.45-14.4,4.59-14.52-9.67-17.73-26.23-5.91-52.63-11-80.87-14.93,19.81,30.85,38.17,60.95,54.39,92.3C808.35,444.36,811.36,449.45,814.2,454.57Z"/><path class="cls-1" d="M579.61,624.45C524.16,626.3,473.5,578.55,474,519.21c.48-58.34,47.53-105.9,105.68-105.88S685.23,461,685.31,519.23C685.38,579.1,635.55,626,579.61,624.45Z"/></svg>